<svg width="512" height="512" viewBox="0 0 512 512" xmlns="http://www.w3.org/2000/svg"><rect width="512" height="512" rx="112.64" fill="#71d99e"/><g fill="#ffffff" transform="translate(256 256) scale(0.09890 -0.09890) translate(-2060.84 -745.00)"><path transform="translate(0.00 0)" d="M651.1993408203125 0H253.199951171875V307.19775390625H632.7994384765625Q767.4002075195312 307.19775390625 854.000732421875 356.1980895996094Q940.6012573242188 405.19842529296875 982.9015197753906 502.7989501953125Q1025.2017822265625 600.3994750976562 1025.2017822265625 744.800048828125Q1025.2017822265625 890.4005737304688 982.3015441894531 987.7010803222656Q939.4013061523438 1085.0015869140625 851.2008666992188 1133.9019165039062Q763.0004272460938 1182.80224609375 627.1998291015625 1182.80224609375H246.7999267578125V1490H650.399658203125Q877.7994995117188 1490 1045.6993103027344 1398.6000366210938Q1213.59912109375 1307.2000732421875 1305.3989868164062 1139.9000854492188Q1397.1988525390625 972.60009765625 1397.1988525390625 744.800048828125Q1397.1988525390625 517.3999633789062 1305.9989624023438 350.2999572753906Q1214.799072265625 183.199951171875 1047.6991882324219 91.5999755859375Q880.5993041992188 0 651.1993408203125 0ZM462.39794921875 1490V0H93.600830078125V1490Z"/><path transform="translate(1354.84 0)" d="M93.600830078125 0V1490H1210.5985717773438V1176.40234375H462.39794921875V899.7991333007812H1153.3985595703125V595.8013305664062H462.39794921875V313.59765625H1210.5985717773438V0Z"/><path transform="translate(2535.68 0)" d="M514.0008544921875 0 4.000244140625 1490H408.39697265625L611.1987915039062 847.99609375Q661.1984252929688 682.9974975585938 710.8982849121094 507.69830322265625Q760.59814453125 332.39910888671875 812.7982788085938 144.79913330078125H705.1991577148438Q755.3992919921875 332.39910888671875 802.7991943359375 507.69830322265625Q850.1990966796875 682.9974975585938 898.3987426757812 847.99609375L1093.2005615234375 1490H1492.3973388671875L996.3966064453125 0Z"/></g></svg>